<?xml version="1.0" standalone="no"?>
<!DOCTYPE svg PUBLIC "-//W3C//DTD SVG 20010904//EN"
 "http://www.w3.org/TR/2001/REC-SVG-20010904/DTD/svg10.dtd">
<svg version="1.0" xmlns="http://www.w3.org/2000/svg"
 width="900.000000pt" height="900.000000pt" viewBox="0 0 900.000000 900.000000"
 preserveAspectRatio="xMidYMid meet">
<metadata>
Created by potrace 1.11, written by Peter Selinger 2001-2013
</metadata>
<g transform="translate(0.000000,900.000000) scale(0.100000,-0.100000)"
fill="#000000" stroke="none">
<path d="M4888 6731 c-82 -27 -138 -63 -197 -127 -87 -95 -143 -226 -142 -335
0 -100 31 -159 248 -469 24 -36 90 -130 146 -210 55 -80 117 -167 136 -195 19
-27 90 -129 156 -225 145 -209 353 -509 418 -602 l48 -68 -51 -72 c-28 -40
-84 -120 -125 -178 -40 -58 -95 -136 -122 -175 -26 -38 -179 -257 -339 -485
-394 -564 -409 -586 -432 -655 -32 -95 -35 -142 -16 -225 33 -147 122 -284
221 -343 120 -70 228 -85 338 -47 144 50 204 105 367 335 58 83 487 684 549
770 77 107 463 647 507 710 19 28 79 111 134 186 54 75 98 144 98 153 0 9 -39
71 -88 138 -48 68 -94 133 -102 145 -40 58 -236 333 -320 450 -52 73 -126 178
-165 233 -38 55 -112 160 -164 233 -121 169 -220 309 -350 494 -314 443 -325
457 -441 521 -113 62 -209 76 -312 43z"/>
<path d="M7473 6726 c-123 -46 -206 -117 -313 -269 -30 -43 -80 -113 -111
-155 -293 -407 -509 -715 -509 -727 0 -8 71 -113 157 -233 86 -119 202 -280
256 -357 107 -149 136 -185 148 -185 5 0 55 65 111 144 99 138 158 220 528
731 92 127 192 267 223 313 63 92 97 185 97 266 0 65 -29 168 -69 243 -110
205 -325 301 -518 229z"/>
<path d="M2625 6663 c-314 -13 -594 -101 -848 -266 -114 -75 -284 -227 -388
-347 -329 -382 -489 -888 -489 -1550 0 -652 138 -1145 427 -1530 126 -168 365
-361 587 -475 151 -77 254 -111 471 -156 136 -27 566 -27 638 0 16 6 40 11 54
11 60 0 291 79 424 145 190 94 342 205 391 285 50 84 73 223 52 323 -17 81
-28 106 -81 188 -50 77 -120 135 -219 181 -57 26 -84 32 -159 36 -105 5 -160
-12 -260 -80 -140 -96 -275 -138 -474 -145 -295 -12 -525 82 -667 272 -159
213 -226 489 -226 935 -1 419 67 686 228 897 100 131 235 218 410 264 226 59
529 19 719 -95 91 -55 139 -73 211 -81 186 -21 389 92 471 263 48 99 64 184
52 271 -32 232 -190 385 -547 526 -229 90 -522 139 -777 128z"/>
<path d="M6925 3899 c-88 -122 -211 -292 -272 -377 -62 -86 -113 -162 -113
-170 0 -14 49 -86 243 -352 67 -91 141 -194 166 -229 221 -307 260 -348 391
-413 140 -69 304 -45 441 65 118 93 204 311 178 451 -19 108 -56 170 -279 471
-117 157 -499 680 -539 737 -14 21 -33 37 -41 38 -8 0 -86 -99 -175 -221z"/>
</g>
</svg>
